<?xml version="1.0" encoding="utf-8" ?><svg xmlns="http://www.w3.org/2000/svg" xmlns:xlink="http://www.w3.org/1999/xlink" width="802" height="802" viewBox="0 0 802 802"><clipPath id="cl_7"><rect x="0.00024414062" y="0.00012207031" width="802" height="802" rx="401" ry="401"/></clipPath><g clip-path="url(#cl_7)"><clipPath id="cl_8"><rect x="0.00015258789" y="0.00012207031" width="802.00012" height="802.00006"/></clipPath><g clip-path="url(#cl_8)"><path fill="white" transform="matrix(1.0025 0 0 1.0025 -240.6 0.00012207)" d="M0 0L1280 0L1280 800L0 800L0 0Z"/><path fill="#646464" transform="matrix(1.0025 0 0 1.0025 -240.6 0.00012207)" d="M521.663 97.7739C522.045 97.7404 522.427 97.7069 522.809 97.6735C581.94 96.522 639.583 113.625 688.313 147.146C697.728 153.623 706.728 159.795 714.918 167.562C703.646 161.619 693.457 156.221 681.6 151.521C636.02 133.751 586.286 129.488 538.347 139.243C459.872 155.07 390.785 212.731 358.983 285.945C338.013 334.223 332.01 392.266 342.475 443.848C355.392 510.726 394.466 569.684 451.027 607.637C496.502 637.66 548.128 652.585 602.854 650.319C619.183 649.643 634.434 646.722 650.353 643.465C678.05 635.668 689.471 629.979 714.762 617.511C667.686 657.984 608.736 682.07 546.787 686.144C469.706 690.48 394.036 664.176 336.265 612.964C277.736 561.231 242.404 488.182 238.185 410.181C233.044 331.893 259.588 254.825 311.85 196.309C367.881 133.079 438.207 102.816 521.663 97.7739Z"/><path fill="#646464" transform="matrix(1.0025 0 0 1.0025 -240.6 0.00012207)" d="M729.743 293.408C777.274 292.396 828.422 293.363 876.251 293.361L876.266 345.544L775.633 345.6C758.185 345.56 740.678 344.91 723.229 345.87C708.73 346.668 703.508 365.586 718.92 370.133C728.264 372.89 740.848 371.942 750.757 371.893L799.04 371.724C824.451 371.667 853.467 369.411 873.225 388.631C886.303 401.352 888.524 415.848 889.019 432.885C889.862 461.942 873.156 486.439 844.266 493.13C830.742 496.385 819.192 495.726 805.312 495.686L658.65 495.7C658.427 478.873 658.378 462.045 658.503 445.218L764.804 445.136C782.766 445.121 800.871 445.51 818.797 444.693C834.03 443.999 835.161 438.365 834.994 425.25C833.7 423.09 830.951 419.037 828.735 418.115C820.475 414.674 809.42 415.822 800.757 415.89L754.645 415.811C726.645 415.775 693.255 418.002 671.259 397.345C649.6 377.004 650.068 334.755 670.213 313.477C686.579 296.191 707.515 294.145 729.743 293.408Z"/><path fill="#262977" transform="matrix(1.0025 0 0 1.0025 -240.6 0.00012207)" d="M441.127 293.331C459.741 293.604 478.356 293.683 496.972 293.568C544.939 293.179 615.392 285.714 626.022 349.547C631.729 383.812 622.553 416.442 586.387 428.763C602.059 450.327 621.678 473.544 638.222 495.613C615.761 495.501 593.3 495.504 570.839 495.623L533.758 441.846C515.974 441.635 498.188 441.565 480.402 441.634L460.002 441.764L460.018 495.627L409.29 495.616L409.263 392.42L497.622 392.362C513.752 392.391 529.944 392.643 546.055 391.785C552.633 391.434 563.733 389.917 568.484 384.938C576.717 376.309 576.729 360.47 568.192 351.899C565.432 349.093 561.883 347.195 558.017 346.458C547.122 344.407 513.576 345.084 501.537 345.152L407.731 345.529C418.125 328.54 429.981 309.754 441.127 293.331Z"/><path fill="#262977" transform="matrix(1.0025 0 0 1.0025 -240.6 0.00012207)" d="M440.387 199.927C450.69 192.096 460.001 185.22 471.28 178.605C517.022 151.677 570.495 140.925 623.09 148.081C687.294 157.281 745.276 191.441 784.442 243.14C788.36 248.39 792.044 253.81 795.482 259.385L703.902 259.381C666.53 213.694 618.308 183.847 558.753 177.913C518.425 174.114 477.874 182.314 442.191 201.483L440.387 199.927Z"/><path fill="#262977" transform="matrix(1.0025 0 0 1.0025 -240.6 0.00012207)" d="M704.019 527.707L795.056 527.74C771.786 563.313 739.623 592.188 701.756 611.502C653.089 636.425 599.463 644.718 545.818 633.589C533.106 630.951 523.155 627.797 510.902 623.835C486.895 614.804 452.262 596.448 434.162 578.088C441.498 581.384 448.9 586.177 456.417 589.577C482.061 600.902 509.737 606.9 537.767 607.21C588.713 607.487 638.033 589.291 676.593 555.993C681.838 551.416 687.399 546.264 692.097 541.122C695.987 536.864 699.284 532.319 703.462 528.244L704.019 527.707Z"/><path fill="#5971AF" transform="matrix(1.0025 0 0 1.0025 -240.6 0.00012207)" d="M440.387 199.927L442.191 201.483C439.482 203.31 435.66 205.338 432.75 206.987C435.507 204.071 437.33 202.492 440.387 199.927Z"/></g></g></svg>